HIERARCHY
ROOT Hips
{
	OFFSET -211.153198 91.653587 -35.738949
	CHANNELS 6 Xposition Yposition Zposition Zrotation Yrotation Xrotation 
	JOINT LeftUpLeg
	{
		OFFSET 0.103455 1.857827 10.548507
		CHANNELS 3 Zrotation Yrotation Xrotation
		JOINT LeftLeg
		{
			OFFSET 43.500000 -0.000031 0.000008
			CHANNELS 3 Zrotation Yrotation Xrotation
			JOINT LeftFoot
			{
				OFFSET 42.372192 0.000011 -0.000014
				CHANNELS 3 Zrotation Yrotation Xrotation
				JOINT LeftToe
				{
					OFFSET 17.299997 -0.000002 0.000013
					CHANNELS 3 Zrotation Yrotation Xrotation
					End Site
					{
						OFFSET 0.000000 0.000000 0.000000
					}
				}
			}
		}
	}
	JOINT RightUpLeg
	{
		OFFSET 0.103457 1.857826 -10.548499
		CHANNELS 3 Zrotation Yrotation Xrotation
		JOINT RightLeg
		{
			OFFSET 43.500046 -0.000019 0.000015
			CHANNELS 3 Zrotation Yrotation Xrotation
			JOINT RightFoot
			{
				OFFSET 42.372261 -0.000004 0.000013
				CHANNELS 3 Zrotation Yrotation Xrotation
				JOINT RightToe
				{
					OFFSET 17.299992 -0.000006 0.000004
					CHANNELS 3 Zrotation Yrotation Xrotation
					End Site
					{
						OFFSET 0.000000 0.000000 0.000000
					}
				}
			}
		}
	}
	JOINT Spine
	{
		OFFSET 6.901968 -2.603730 -0.000002
		CHANNELS 3 Zrotation Yrotation Xrotation
		JOINT Spine1
		{
			OFFSET 12.588100 -0.000001 0.000009
			CHANNELS 3 Zrotation Yrotation Xrotation
			JOINT Spine2
			{
				OFFSET 12.343201 0.000005 -0.000005
				CHANNELS 3 Zrotation Yrotation Xrotation
				JOINT Neck
				{
					OFFSET 25.832893 -0.000008 -0.000006
					CHANNELS 3 Zrotation Yrotation Xrotation
					JOINT Head
					{
						OFFSET 11.766606 0.000005 0.000008
						CHANNELS 3 Zrotation Yrotation Xrotation
						End Site
						{
							OFFSET 0.000000 0.000000 0.000000
						}
					}
				}
				JOINT LeftShoulder
				{
					OFFSET 19.745903 -1.480373 6.000100
					CHANNELS 3 Zrotation Yrotation Xrotation
					JOINT LeftArm
					{
						OFFSET 11.284123 -0.000007 -0.000024
						CHANNELS 3 Zrotation Yrotation Xrotation
						JOINT LeftForeArm
						{
							OFFSET 33.000053 0.000004 0.000036
							CHANNELS 3 Zrotation Yrotation Xrotation
							JOINT LeftHand
							{
								OFFSET 25.200006 0.000021 -0.000003
								CHANNELS 3 Zrotation Yrotation Xrotation
								End Site
								{
									OFFSET 0.000000 0.000000 0.000000
								}
							}
						}
					}
				}
				JOINT RightShoulder
				{
					OFFSET 19.746101 -1.480381 -6.000079
					CHANNELS 3 Zrotation Yrotation Xrotation
					JOINT RightArm
					{
						OFFSET 11.284133 -0.000015 -0.000008
						CHANNELS 3 Zrotation Yrotation Xrotation
						JOINT RightForeArm
						{
							OFFSET 33.000099 0.000016 0.000006
							CHANNELS 3 Zrotation Yrotation Xrotation
							JOINT RightHand
							{
								OFFSET 25.199781 0.000142 0.000425
								CHANNELS 3 Zrotation Yrotation Xrotation
								End Site
								{
									OFFSET 0.000000 0.000000 0.000000
								}
							}
						}
					}
				}
			}
		}
	}
}
MOTION
Frames: 7
Frame Time: 0.033333
-109.271896 87.386681 -90.613197 97.560298 -4.517499 173.248199 167.283654 -4.733201 -176.324243 -30.659859 -4.274985 2.192394 77.133996 -3.245780 -6.598837 21.454553 0.003092 0.000000 168.617850 11.017196 -177.408863 -67.384187 -5.194264 15.475168 68.998974 -9.701997 3.822601 21.454567 -0.003107 -0.000018 9.519852 -1.661232 1.650894 8.983160 -3.445506 3.169208 8.665004 -3.426179 3.189956 13.396036 -9.735396 -12.166840 -2.489567 21.694479 -17.979896 -163.345750 -72.612991 -18.544476 -7.760305 51.129140 24.872294 -25.307919 -12.790991 1.005734 14.175975 0.554706 54.493978 -169.683400 73.687557 11.993095 -26.999533 -62.034531 -6.184140 -35.264250 17.295152 -1.516465 7.970585 4.460087 -13.539965 
-106.747597 88.231087 -91.358101 97.394434 -3.615164 172.169098 170.171499 -4.937805 -177.188153 -28.624510 -4.056436 1.757489 77.808163 -2.730524 -5.981406 21.454558 0.003092 0.000000 164.147614 10.712997 -173.556637 -70.097262 -5.038126 13.789788 72.820390 -8.988088 2.314755 21.454555 -0.003114 -0.000017 9.361577 -1.513117 1.332599 8.678770 -3.121820 2.548897 8.360490 -3.106239 2.567711 13.601621 -9.274472 -11.961130 -2.719550 20.969482 -17.616818 -165.138729 -73.124395 -16.699003 -12.655677 50.563351 23.263939 -25.927482 -13.272868 1.046544 13.318474 0.069555 52.929912 -167.996480 73.195804 13.724310 -25.125268 -62.130146 -6.789255 -34.722943 17.247932 -1.500823 8.404737 5.124888 -14.020568 
-104.287399 88.940727 -91.985359 96.795706 -2.882120 170.960291 172.694899 -5.154693 -178.238062 -26.376568 -3.970859 1.386363 78.338035 -2.273646 -5.359932 21.454551 0.003092 -0.000000 159.707800 10.429701 -170.612047 -70.352410 -3.922600 10.843418 73.316111 -6.887112 2.456609 21.454553 -0.003113 -0.000019 9.119114 -1.368412 1.023979 8.203937 -2.805884 1.949009 7.885640 -2.793928 1.965927 13.790803 -8.863974 -12.008109 -3.595885 20.764711 -17.768821 -166.792441 -73.823902 -14.998573 -16.908529 50.192495 19.794250 -27.402509 -13.829752 1.107004 12.674836 -0.680217 51.212120 -166.420182 72.882544 15.343798 -22.352060 -61.977027 -8.399819 -35.012769 17.150310 -1.501250 8.288196 4.667130 -14.240034 
-101.783897 89.284393 -92.485909 96.349777 -2.694008 169.358598 175.125627 -4.763505 -179.675161 -24.637689 -3.686287 1.022187 79.203201 -1.878932 -4.982314 21.454550 0.003092 -0.000000 155.845519 10.356291 -169.022197 -68.509270 -1.931423 7.574843 72.393995 -4.663666 2.268224 21.454553 -0.003106 -0.000018 8.918787 -1.354836 0.754962 7.809888 -2.757453 1.417282 7.491517 -2.748708 1.433920 13.813845 -8.151670 -11.953730 -4.767899 20.771509 -17.923598 -168.859721 -74.889595 -12.877878 -20.464194 49.589673 15.498138 -29.486992 -14.199612 1.168507 11.948829 -1.700649 48.138080 -165.065619 72.424676 16.737920 -19.326099 -61.189001 -11.376874 -35.783136 16.927970 -1.505029 7.979954 4.109557 -13.340342 
-99.172417 89.387863 -92.911957 96.261141 -2.689349 167.537000 177.817391 -4.152496 179.010570 -23.152863 -3.679980 0.555318 80.292507 -1.413815 -4.654774 21.454551 0.003092 -0.000000 153.172579 10.105193 -167.774445 -64.336031 0.242718 5.372988 71.884654 -3.466943 1.263623 21.454557 -0.003109 -0.000018 8.829067 -1.390114 0.476688 7.637010 -2.808608 0.860990 7.318537 -2.803220 0.877951 13.786447 -7.298486 -11.774101 -6.090386 20.058920 -17.790117 -171.157246 -76.084892 -10.529507 -23.449896 48.660918 11.676120 -31.884768 -14.901682 1.261062 11.275073 -2.255798 43.239889 -164.859402 72.139119 16.951864 -16.780644 -60.275757 -14.336149 -36.474699 17.067599 -1.530669 7.943589 4.196650 -12.711335 
-96.501289 89.340302 -93.195320 96.534772 -2.475976 165.891908 -179.255241 -3.697797 177.857743 -21.971593 -3.810305 0.190877 81.543648 -1.025793 -4.354578 21.454550 0.003094 -0.000000 152.127410 9.372605 -166.024236 -57.697907 1.989319 5.042635 72.122747 -3.066475 1.978873 21.454551 -0.003118 -0.000016 8.881888 -1.370663 0.177817 7.749977 -2.750149 0.263646 7.431494 -2.748372 0.280269 13.719364 -6.773910 -11.513991 -6.861048 19.753272 -17.574502 -173.618327 -77.097932 -8.021800 -26.413247 47.022287 8.634681 -33.729288 -15.515406 1.339964 10.333603 -3.796858 37.117427 -164.494902 71.935682 17.328233 -15.260536 -59.463060 -16.241071 -36.947307 17.371550 -1.561888 7.374149 4.662877 -12.829401 
-93.873329 89.155663 -93.432480 96.763550 -2.506450 164.436900 -176.655985 -2.720901 177.496577 -20.988659 -3.724843 -0.532637 82.859429 -0.458294 -4.323630 21.454555 0.003093 0.000000 151.920005 8.587008 -163.860582 -49.030219 3.315157 5.620978 72.160655 -3.486388 2.111040 21.454555 -0.003111 -0.000020 8.958175 -1.389411 -0.129768 7.910079 -2.766731 -0.354181 7.591578 -2.768681 -0.337448 13.576385 -6.484048 -11.349117 -7.090454 19.487892 -17.369907 -175.046492 -77.913013 -6.572490 -29.306890 44.723167 5.730851 -35.308755 -15.916333 1.401530 9.486825 -5.156366 32.246112 -163.366391 71.485620 18.493058 -14.672904 -58.728214 -16.875389 -37.136579 17.506173 -1.575278 7.041417 4.888526 -12.652269 
